<?xml version="1.0" encoding="utf-8"?>
<!-- Generator: Adobe Illustrator 19.0.0, SVG Export Plug-In . SVG Version: 6.00 Build 0)  -->
<svg version="1.1" id="Capa_1" xmlns="http://www.w3.org/2000/svg" xmlns:xlink="http://www.w3.org/1999/xlink" x="0px" y="0px"
	 width="512px" height="512px" viewBox="-223 25 512 512" style="enable-background:new -223 25 512 512;" xml:space="preserve">
<style type="text/css">
	.st0{fill:#FFFFFF;}
</style>
<g>
	<path class="st0" d="M-34.8,233.3c-1.6,0.1-6.8,4.6-6.8,4.6C-38.8,239.1-33.2,233.2-34.8,233.3z M-34.1,232.4l-0.4,0.3
		C-34.4,232.6-34.2,232.6-34.1,232.4C-34.1,232.5-34.1,232.5-34.1,232.4z M159,31.9c28.9,0,52.4,23.4,52.4,52.4
		s-23.4,52.4-52.4,52.4s-52.4-23.4-52.4-52.4S130,31.9,159,31.9z M-155.4,256.3h14v-6.7h-14c-3.8,0-6.6-0.8-7.6-2.1
		c-0.8-1-0.4-2.3-0.4-2.3l0.2-40.7h-6.7v39.3c-0.3,1.4-0.7,4.7,1.5,7.7C-166,254.7-161.6,256.3-155.4,256.3z M288.1,352l-1.9-15.4
		c-7.5-60.3-7.8-62.6-4.9-168.9c0.1-3.7-2.8-6.8-6.6-6.9c-3.5-0.2-6.8,2.8-6.9,6.6c-2.9,107.3-2.6,109.6,5,170.9l1.9,15.5
		c2,14.8,0.2,25.1-4.8,29c-5.9,4.5-16.1,0.5-16.8,0.2c-49.6-15.3-111.4,16.3-114,17.6c-3.3,1.7-4.6,5.8-2.9,9.1
		c1.2,2.3,3.6,3.6,6,3.6c1,0,2.1-0.2,3.1-0.8c0.4-0.2,28-14.2,59.3-18.9v105h-28c-5.7,0-10.3,4.6-10.3,10.3
		c0,5.7,4.6,10.3,10.3,10.3h79.6c5.7,0,10.3-4.6,10.3-10.3c0-5.7-4.6-10.3-10.3-10.3h-25.8V392.4c6.2,0.4,12.3,1.4,18.2,3.2
		c0.7,0.3,17.4,7.2,29.6-2.2C287.4,386.3,290.8,372.3,288.1,352z M256,321.4c-1.2-44.4-15.7-86.9-16.8-131
		c-1.7-64.3-100.3-65.8-101-3c-37.7,6.4-75.4,9.8-113.8,8c-34.8-1.6-34.9,52.3-0.4,53.9c40.3,1.9,80.2-1.9,119.9-8.4
		c4.1,23.6,8.9,47.1,10.4,71C72.3,340.4,26.8,409.9,15.2,498.2c-0.1,0.6-0.1,1.3-0.2,1.9V304.6h51.8v-46.2h-185.6
		c0.1-0.6,0.2-1.3,0.2-2.1c0-0.5,0-1.1,0.1-1.7c0.2-3.9,0.9-5.2,4.7-6c1-0.2,2.2-0.2,3.4-0.2v3.2h49.8c1.5,0.3,2.9,0.5,4.2,0.5
		c2.1,0,3.9-0.5,5-1.9c0.6-0.7,0.6-1.8,0.5-2.8c0-1,0-2,0.5-2.5c0.7-0.9,2.1-1.5,3.1-1.6c-1,2-1.7,4.1-1.7,6.4H7.5
		c0-10.9-12.6-19.7-28.2-19.7c-4.9,0-9.3,0.9-13.3,2.4c0.9,9.3-7.8,8.4-11.2,7.7c-0.4,0.5-0.7,1-1.1,1.5c-0.2,0-0.3-0.1-0.5-0.1
		c-1.5-0.1-3.7,0.8-4.8,2.2c-0.9,1-0.8,2.4-0.8,3.6c0,0.7,0,1.5-0.2,1.8c-0.6,0.8-1.8,1.1-3.1,1.1v-7.8h-54.6v4.1
		c-1.5,0-2.8,0.1-3.7,0.3c-4.8,0.9-5.8,3.2-6.1,7.5c0,0.6-0.1,1.2-0.1,1.7c0,1-0.1,1.7-0.2,2.2H-223v46.2h28.2v224.1H15.1v-22.4
		c3.4,34.5,62.4,31.4,67.5-8.2c9-68.3,48.8-113.9,115.8-129C226.2,373.4,257,357.6,256,321.4z M-146.9,106.3l8.5,121l-22.4,1.6
		l-8.5-121L-146.9,106.3z"/>
</g>
<g>
	<path class="st0" d="M-81.3,67.8h-6.6c-0.1-1.5-0.5-2.9-1.2-4.2c-0.7-1.2-1.6-2.3-2.8-3.2c-1.2-0.9-2.5-1.6-4.1-2
		c-1.6-0.5-3.2-0.7-5-0.7c-2.4,0-4.7,0.4-6.6,1.3c-2,0.9-3.7,2.1-5.1,3.8c-1.4,1.7-2.5,3.7-3.2,6.2c-0.8,2.5-1.1,5.3-1.1,8.4
		c0,3.2,0.4,6,1.1,8.4c0.8,2.4,1.8,4.5,3.2,6.2c1.4,1.7,3,3,5,3.8c2,0.9,4.2,1.3,6.6,1.3c3.8,0,6.9-0.9,9.3-2.8
		c2.4-1.9,3.7-4.5,4-8.1h6.6c-0.2,2.6-0.9,4.9-1.9,6.9c-1.1,2-2.5,3.7-4.2,5.1c-1.7,1.4-3.8,2.5-6.1,3.2c-2.3,0.7-4.8,1.1-7.6,1.1
		c-3.5,0-6.6-0.6-9.4-1.8c-2.8-1.2-5.2-2.9-7.1-5.1s-3.5-4.8-4.5-8c-1.1-3.1-1.6-6.6-1.6-10.4c0-3.8,0.5-7.3,1.6-10.4
		c1.1-3.1,2.6-5.8,4.6-8s4.3-3.9,7.1-5.1c2.8-1.2,5.9-1.8,9.4-1.8c2.6,0,5,0.4,7.3,1.1s4.3,1.8,6.1,3.2c1.8,1.4,3.2,3,4.3,5
		S-81.6,65.4-81.3,67.8z"/>
	<path class="st0" d="M-51.2,52.1c3.4,0,6.5,0.6,9.3,1.8c2.9,1.2,5.3,2.9,7.4,5.1c2.1,2.2,3.7,4.9,4.8,8c1.2,3.1,1.7,6.5,1.7,10.3
		c0,3.7-0.6,7.1-1.7,10.2c-1.1,3.1-2.7,5.8-4.8,8c-2.1,2.2-4.5,4-7.4,5.2c-2.8,1.2-6,1.8-9.4,1.8c-3.4,0-6.6-0.6-9.4-1.8
		s-5.3-2.9-7.4-5.1c-2.1-2.2-3.7-4.9-4.8-8s-1.7-6.6-1.7-10.3c0-3.8,0.6-7.3,1.7-10.4c1.2-3.1,2.8-5.8,4.9-8
		c2.1-2.2,4.6-3.9,7.4-5.1C-57.7,52.7-54.6,52.1-51.2,52.1z M-51.3,97.1c2.4,0,4.7-0.5,6.7-1.4c2.1-0.9,3.8-2.2,5.3-3.9
		c1.5-1.7,2.6-3.8,3.5-6.2c0.8-2.4,1.2-5.2,1.2-8.3c0-3.1-0.4-5.9-1.3-8.3c-0.8-2.4-2-4.5-3.5-6.2c-1.5-1.7-3.2-3-5.3-3.8
		c-2-0.9-4.2-1.3-6.6-1.3c-2.4,0-4.6,0.4-6.7,1.3s-3.9,2.2-5.3,3.9c-1.5,1.7-2.6,3.7-3.5,6.2c-0.8,2.4-1.3,5.2-1.3,8.3
		c0,3.1,0.4,5.9,1.2,8.3c0.8,2.4,2,4.5,3.5,6.2c1.5,1.7,3.2,3,5.3,3.9C-55.9,96.7-53.7,97.1-51.3,97.1z"/>
	<path class="st0" d="M21.1,77.1c0,16.5-8.3,24.7-24.9,24.7h-15.5V53h15.5C12.8,53,21.1,61,21.1,77.1z M14.4,77.1
		c0-2.9-0.3-5.4-0.9-7.7c-0.6-2.3-1.5-4.2-2.9-5.8C9.3,62.1,7.4,60.9,5,60c-2.4-0.8-5.3-1.3-8.9-1.3h-8.9V96h8.9
		c3.6,0,6.5-0.4,8.9-1.3c2.4-0.9,4.2-2.1,5.6-3.7c1.4-1.6,2.4-3.6,3-5.9C14.2,82.7,14.4,80.1,14.4,77.1z"/>
	<path class="st0" d="M66.4,101.8H30V53h35.3v5.8H36.4v14.8h27v5.8h-27V96h30V101.8z"/>
</g>
</svg>
