<?xml version="1.0" encoding="utf-8"?>
<!-- Generator: Adobe Illustrator 19.0.0, SVG Export Plug-In . SVG Version: 6.00 Build 0)  -->
<svg version="1.1" id="Capa_1" xmlns="http://www.w3.org/2000/svg" xmlns:xlink="http://www.w3.org/1999/xlink" x="0px" y="0px"
	 width="380.7px" height="380.7px" viewBox="-289 90.3 380.7 380.7" style="enable-background:new -289 90.3 380.7 380.7;"
	 xml:space="preserve">
<style type="text/css">
	.st0{fill:#FFFFFF;}
</style>
<g>
	<path class="st0" d="M55.3,417.7l0.1,0c0,0-82.9-84.1-91-92.3c-5-1.5-34.5-14.5-35-38.8c12.6-14.4,30.9-28.3,57.9-28.5
		c0,0,0.2,0,0.3,0c12.2,0.3,24.6-3.7,34.4-12.3c0.7-0.6,2.3-2.2,2.3-2.2l67.5-85.1l-8.1-8.1L1,237.6l-9.7-9.8l85-85l-7.1-7.1
		l-85.5,85.5l-8.1-8.1l85.5-85.5l-7.9-7.8l-85.5,85.5l-9.6-9.6l88.3-82.8l-7.4-7.4l-81.4,63.4c0,0-2.9,2.5-4,3.5
		c-11.2,11.2-16,26.3-14.4,40.9c-1.1,18.5-7.1,32.2-14.9,42.7c-151.7-148.4-208.9-132.5-208.9-132.5l-4.5,4.6
		c0,0,102,102.3,165,165.4c-22.1,22.1-128.7,128.7-128.7,128.7l0,0c-0.1,0.1-0.2,0.1-0.3,0.2c-7.6,7.6-7.6,20,0,27.6
		c7.6,7.6,20,7.6,27.6,0c0.1-0.1,0.2-0.2,0.2-0.3l0,0c0,0,106.7-106.7,128.7-128.7c11.5,11.5,19.2,19.2,20.7,20.8
		c9.3,9.4,103.4,103.4,103.4,103.4h0.1c0,0.1,0.1,0.2,0.2,0.3c7.6,7.7,20.1,7.7,27.7,0c7.7-7.6,7.7-20,0-27.7
		C55.5,417.8,55.4,417.7,55.3,417.7z"/>
</g>
<g>
	<path class="st0" d="M-140.6,112.8h-19.1v13.2h8.3c0.7,0,1.4,0.3,1.9,0.8c0.5,0.5,0.8,1.2,0.8,1.9c0,0.8-0.3,1.4-0.8,2
		c-0.5,0.5-1.2,0.8-1.9,0.8h-8.3v13.3h19.2c0.7,0,1.4,0.3,1.9,0.8c0.5,0.5,0.8,1.2,0.8,1.9c0,0.8-0.3,1.4-0.8,1.9
		c-0.5,0.5-1.2,0.8-1.9,0.8h-24.6v-42.8h24.6c0.8,0,1.4,0.3,1.9,0.8s0.8,1.2,0.8,1.9c0,0.7-0.3,1.4-0.8,1.9
		C-139.2,112.5-139.9,112.8-140.6,112.8z"/>
	<path class="st0" d="M-125.2,146.3l10.9-37c0.4-1.3,1.3-2,2.7-2c1.3,0,2.2,0.6,2.5,1.7l10.8,37.6c0.1,0.3,0.1,0.5,0.1,0.8
		c0,0.8-0.3,1.4-0.8,1.9c-0.5,0.5-1.1,0.8-1.8,0.8c-1.4,0-2.3-0.7-2.7-2l-2.1-7.3h-12.4l-2.4,7.9c-0.1,0.3-0.3,0.7-0.8,1
		c-0.5,0.3-1,0.5-1.6,0.5c-0.8,0-1.5-0.3-2-0.8c-0.5-0.5-0.8-1.2-0.8-2C-125.3,147-125.3,146.7-125.2,146.3z M-111.6,119.8
		l-4.6,15.5h9.2L-111.6,119.8z"/>
	<path class="st0" d="M-85.5,114.7v-7.3h27.3v7.4c0,0.8-0.3,1.4-0.8,1.9c-0.5,0.5-1.2,0.8-1.9,0.8c-0.8,0-1.4-0.3-2-0.8
		c-0.5-0.5-0.8-1.2-0.8-1.9v-2h-5.5v34.6c0,0.8-0.3,1.4-0.8,1.9c-0.5,0.5-1.2,0.8-1.9,0.8c-0.8,0-1.4-0.3-2-0.8
		c-0.5-0.5-0.8-1.2-0.8-1.9v-34.6h-5.5v1.9c0,0.8-0.3,1.4-0.8,1.9c-0.5,0.5-1.2,0.8-1.9,0.8s-1.4-0.3-1.9-0.8
		C-85.3,116.1-85.5,115.4-85.5,114.7z"/>
</g>
</svg>
