<?xml version="1.0" encoding="utf-8"?>
<!-- Generator: Adobe Illustrator 19.0.0, SVG Export Plug-In . SVG Version: 6.00 Build 0)  -->
<svg version="1.1" id="Layer_1" xmlns="http://www.w3.org/2000/svg" xmlns:xlink="http://www.w3.org/1999/xlink" x="0px" y="0px"
	 width="800px" height="580px" viewBox="0 0 800 580" style="enable-background:new 0 0 800 580;" xml:space="preserve">
<style type="text/css">
	.st0{fill:#EA4775;}
	.st1{fill:#45C5DD;}
	.st2{fill:#FFFFFF;}
	.st3{fill:#8DC63F;stroke:#8DC63F;stroke-width:6;stroke-miterlimit:10;}
	.st4{fill:#8DC63F;stroke:#8DC63F;stroke-width:10;stroke-miterlimit:10;}
</style>
<g>
	<g>
		<path class="st0" d="M329,403.3c-20.6,44.5-93.1,51.4-124.5,20.9c-28.4-26.9-15.3-87.8,8.8-117.4c10.3-12.5,22.6-20.9,34.8-24.9
			c15.7-5.8,31.2-5.2,42.8,0.9c10.1,5.2,17.4,14.2,18.9,27.1c1.3,11.4-1.9,25.8-11.8,42.4l-17.4-28c3.2-5.2,7.5-10.3,7.3-16.6
			c-0.2-6.9-4.9-10.3-11.4-10.3c-7.1,0-15.7,4.1-24.9,12c-23.2,21.3-40.2,69.5-23.9,96.1c16.3,26.9,71.8,32.3,91-2.1H329z"/>
	</g>
	<g>
		<path class="st0" d="M368.2,407.3c-16.1,44.1-76.8,55.9-65.4-1.5l22.6-112.9h29c-7.3,36.6-21.3,103.5-26.2,128.2
			c-4.7,24.5,25.2,6.2,31.8-13.8H368.2z"/>
		<path class="st0" d="M472.5,406.2c-13.8,39.1-59.4,53.6-64.5,19.4c-22.8,28.2-62.4,28.8-53.3-20.6l13.8-69h29.3
			c-6.7,35.1-12,60.7-16.3,84.5c-4.3,23.7,16.8,9.5,26.2-8.4c0.4-2.2,0.9-4.5,14.4-76.1h28.8c-6.5,35.1-11.2,59.6-15.7,84.5
			c-4.5,25,22.4,6.2,29-14.2H472.5z"/>
		<path class="st0" d="M550,397.2c-12.3,42.2-32.7,46.2-60.2,46.2c-7.1,0-14.4,0-22.6,0c-2.8,0-9.9,0-12.5,0L485,292.9h28.4l-9,45.8
			c5.2-2.4,10.5-3.9,16.3-3.9c9.5,0,16.6,2.8,21.7,7.1c4.7,3.9,7.5,9.5,9.9,15.9C555.4,369.2,554.5,383.4,550,397.2z M525,358.5
			c-3.7-8.4-11.8-12.9-22.8-7.5l-15.1,74.4c25.4,19.6,38.5-20.4,40.7-41.3C528.9,373.7,527.8,364.1,525,358.5z"/>
	</g>
</g>
<g>
	<g>
		<path class="st1" d="M686.3,389.8c0,0,4.4,21-12.2,39.4c0,0-26.3,32.4-69.9,0.3c-43.6-32.1-42.4-80.1-28.4-108.6
			c11.4,25,34,23,34,23s-1.6-12.4,11.9-9.9c0,0,11.1,3.4,3.4,17.8c0,0,49.5-12.1,61.1,37.3"/>
		<path class="st1" d="M668.3,417.5l0.3-10.7c0,0,56.5,29.6,81.3-19c8-26.3,1-49.9-12.6-60.1c-13.6-10.2-20.9-23.1-91.4-28
			c-70.5-4.9-135-16.5-169.8-52.1c-34.9-35.6,5-99,101.9-42.9l10.2-4.3l28,15.7l1.1,6.1l18.7,12.8l-11.3,16.6l-16.2-11.1l-5.8,2.8
			l-29-16.5l-3.4-11.5c0,0-84-48.8-92.4,4c0,0.3-0.1,0.6-0.1,0.9c0,0,2.1,17.3,12.9,24.7c10.8,7.4,47.8,40.5,147.2,42.8
			c88.6,2.2,143.6,33.7,125.7,103.5c-21.1,47.7-66.2,36.1-66.2,36.1S681.8,427.3,668.3,417.5z"/>
	</g>
	
		<rect x="621.2" y="229.1" transform="matrix(0.8092 0.5875 -0.5875 0.8092 254.5543 -321.9686)" class="st1" width="3.6" height="3.6"/>
	
		<rect x="615.5" y="237.2" transform="matrix(0.809 0.5877 -0.5877 0.809 258.38 -317.1674)" class="st1" width="3.6" height="3.6"/>
	<circle class="st2" cx="595.4" cy="355.2" r="7.6"/>
</g>
<g>
	<g>
		<path class="st3" d="M59.1,253.1c31.4,0,35.9-17.3,35.9-32.8c0-12.4-1.8-24.8-3.5-37.2s-3.5-24.4-3.5-36.8c0-40.7,26.6-58,64.2-58
			h9.3v24.4h-8c-26.1,0-35,14.2-35,38.1c0,10.2,1.3,20.8,3.1,31.4c1.8,11.1,3.1,21.7,3.1,33.7c0.4,28.3-12,42.5-31.9,47.8v0.9
			c19.9,4.9,32.3,19.9,31.9,48.3c0,12-1.3,23-3.1,33.7c-1.8,11.1-3.1,21.3-3.1,31.9c0,24.8,10.2,38.5,35,38.5h8v24.4h-9.3
			c-36.8,0-64.2-15.9-64.2-60.7c0-12,1.8-24.4,3.5-36.3s3.5-23.9,3.5-35.9c0-13.7-4.4-32.8-35.9-32.8V253.1z"/>
	</g>
	<path class="st4" d="M168.4,91.1V111c17.4,2,57.2,15.4,57.7,72.3c0.6,68.1-56.5,64.1-57.8,64.1c-1.3,0,0,27.1,0,27.1
		s91.8,9.3,91.8-87.9C260.1,97.1,190.8,94.2,168.4,91.1z"/>
</g>
</svg>
