<?xml version="1.0" encoding="utf-8"?>
<!-- Generator: Adobe Illustrator 19.0.0, SVG Export Plug-In . SVG Version: 6.00 Build 0)  -->
<svg version="1.1" id="Layer_1" xmlns="http://www.w3.org/2000/svg" xmlns:xlink="http://www.w3.org/1999/xlink" x="0px" y="0px"
	 width="512px" height="512px" viewBox="-223 25 512 512" style="enable-background:new -223 25 512 512;" xml:space="preserve">
<style type="text/css">
	.st0{fill:#FFFFFF;}
</style>
<g>
	<g>
		<circle class="st0" cx="64.1" cy="182.4" r="44.4"/>
	</g>
</g>
<g>
	<g>
		<path class="st0" d="M272.4,286.9c-8.2,0-154.7,0-162.1,0c3.7-3.7,5.9-8.9,5.8-14.6c-0.3-11.1-9.5-19.9-20.6-19.6L26,254.3
			l-38.3-54.7L17,224.1c-1.5-2.3-30.9-38.1-30-37c-6.6-8.1-16.5-12.7-26.9-12.6s-20.2,5-26.6,13.2l-78.4,100.5
			c-8.1,10.5-11.4,25-6.6,38c2.8,7.7,10.7,13.7,19.1,16.1c7.9,3.9,10.4,2.5,36.6,8.8h-73.5l-21.6-170.7c-1.1-8.8-9.2-15.1-18-13.9
			c-8.8,1.1-15.1,9.2-13.9,18l23.4,184.8c1,8,7.9,14.1,16,14.1h58.1v65.9l-38.2,31.2c-4.7,3.9-5.5,10.9-1.6,15.6s10.9,5.5,15.6,1.6
			l24.2-19.7V489c0,6.1,5,11.1,11.1,11.1s11.1-5,11.1-11.1v-11.1l24.2,19.7c4.8,3.9,11.7,3.2,15.6-1.6c3.9-4.7,3.2-11.7-1.6-15.6
			l-38.2-31.2v-65.9h53c9.2,0,16.8-7.8,16-17.4l4.6,1.1l-28.2,102.5c-3.5,12.9,4,26.1,16.9,29.7c12.9,3.5,26.1-4,29.7-16.9
			l34.8-126.6c3.6-13.1-4.4-26.7-17.6-29.9l-44.6-10.7l20.4-18.2l-26.9-74.4l44.5,63.5c3.8,5.4,9.9,8.6,16.5,8.6c0.2,0,0.3,0,0.5,0
			l17-0.4c-1.7,2.6-2.7,5.8-2.7,9.1c0,9.2,7.4,16.6,16.6,16.6h2.2V489c0,6.1,5,11.1,11.1,11.1s11.1-5,11.1-11.1V320.1H249V489
			c0,6.1,5,11.1,11.1,11.1s11.1-5,11.1-11.1V320.1h1.1c9.2,0,16.6-7.5,16.6-16.6S281.5,286.9,272.4,286.9z"/>
	</g>
</g>
<g>
	<g>
		<path class="st0" d="M275.5,186c-5.4-2.9-12.1-1-15.1,4.4l-33.5,61.1h-60.2c-6.1,0-11.1,5-11.1,11.1s5,11.1,11.1,11.1h66.7
			c4.1,0,7.8-2.2,9.7-5.8l36.6-66.8C282.8,195.7,280.8,188.9,275.5,186z"/>
	</g>
</g>
<g>
	<g>
		<path class="st0" d="M172.1,147.8h-20.4l21.2-37.4c0.8-1.5,1.3-2.9,1.3-4.1c0-1.8-1.1-3.1-3.4-3.1h-29c-2.5,0-3.5,2.6-3.5,5.1
			c0,2.7,1.3,5.1,3.5,5.1h17.4L138,150.8c-0.8,1.4-1.3,2.9-1.3,4.1c0,1.8,1,3.1,3.4,3.1h32c2.3,0,3.5-2.7,3.5-5.1
			S174.3,147.8,172.1,147.8z"/>
	</g>
</g>
<g>
	<g>
		<path class="st0" d="M215.6,109.2h-14.1l14.6-25.8c0.6-1,0.9-2,0.9-2.8c0-1.2-0.8-2.1-2.3-2.1h-20c-1.7,0-2.4,1.8-2.4,3.5
			c0,1.9,0.9,3.5,2.4,3.5h12l-14.6,25.8c-0.6,1-0.9,2-0.9,2.8c0,1.2,0.7,2.1,2.3,2.1h22c1.5,0,2.4-1.9,2.4-3.5
			C218.1,111,217.2,109.2,215.6,109.2z"/>
	</g>
</g>
<g>
	<g>
		<path class="st0" d="M244.3,78.7h-7.7l8-14.1c0.3-0.6,0.5-1.1,0.5-1.6c0-0.7-0.4-1.2-1.3-1.2h-10.9c-0.9,0-1.3,1-1.3,1.9
			c0,1,0.5,1.9,1.3,1.9h6.6l-8,14.1c-0.3,0.5-0.5,1.1-0.5,1.6c0,0.7,0.4,1.2,1.3,1.2h12c0.8,0,1.3-1,1.3-1.9
			C245.6,79.7,245.2,78.7,244.3,78.7z"/>
	</g>
</g>
<g>
	<path class="st0" d="M-116.9,85.3c2.7,1.7,6.7,3.1,10.9,3.1c6.2,0,9.9-3.3,9.9-8.1c0-4.4-2.5-6.9-8.9-9.4
		c-7.7-2.7-12.5-6.7-12.5-13.4c0-7.4,6.1-12.8,15.3-12.8c4.8,0,8.3,1.1,10.4,2.3l-1.7,5c-1.5-0.8-4.7-2.2-9-2.2
		c-6.4,0-8.9,3.9-8.9,7.1c0,4.4,2.9,6.6,9.4,9.1c8,3.1,12,6.9,12,13.9c0,7.3-5.4,13.6-16.5,13.6c-4.6,0-9.5-1.3-12-3L-116.9,85.3z"
		/>
	<path class="st0" d="M-81.5,45.5h6.1v42.1h20.2v5.1h-26.3V45.5z"/>
	<path class="st0" d="M-24,70.6h-18.3v17h20.4v5.1h-26.5V45.5H-23v5.1h-19.4v14.9H-24V70.6z"/>
	<path class="st0" d="M10.4,70.6H-7.9v17h20.4v5.1H-14V45.5h25.5v5.1H-7.9v14.9h18.3V70.6z"/>
	<path class="st0" d="M20.4,46.1c2.9-0.5,6.8-0.9,11.7-0.9c6,0,10.4,1.4,13.2,3.9c2.6,2.2,4.1,5.7,4.1,9.9c0,4.3-1.3,7.6-3.6,10.1
		c-3.2,3.4-8.5,5.2-14.4,5.2c-1.8,0-3.5-0.1-4.9-0.4v18.9h-6.1V46.1z M26.5,68.8c1.3,0.4,3,0.5,5,0.5c7.4,0,11.8-3.6,11.8-10.1
		C43.4,53,39,50,32.2,50c-2.7,0-4.7,0.2-5.7,0.5V68.8z"/>
</g>
</svg>
